<svg width="75" height="63" viewBox="0 0 75 63" fill="none" xmlns="http://www.w3.org/2000/svg">
<path d="M37.6776 0.0703213C36.3377 0.0703213 34.9915 0.335847 33.7256 0.863809L6.14501 12.269C4.59199 12.9112 4.63213 15.0725 6.18206 15.7147L33.914 26.7C36.3435 27.6849 39.0612 27.6849 41.4907 26.7L69.2226 15.7147C70.7756 15.1095 70.7756 12.9112 69.2597 12.269L41.6049 0.863809C40.3624 0.338393 39.0267 0.068535 37.6776 0.0703213ZM72.8998 18.8732C72.6645 18.8747 72.4317 18.9219 72.2144 19.0121L41.3024 30.9824C40.9565 31.124 40.6604 31.3651 40.4516 31.6751C40.2428 31.985 40.1305 32.35 40.1291 32.7237V60.1901C40.132 60.4908 40.2081 60.7863 40.3507 61.051C40.4934 61.3157 40.6984 61.5417 40.9479 61.7095C41.1975 61.8773 41.4841 61.9818 41.7831 62.014C42.0821 62.0462 42.3844 62.0052 42.664 61.8944L73.5791 49.884C73.9257 49.7553 74.2243 49.523 74.4342 49.2186C74.6441 48.9142 74.7552 48.5526 74.7523 48.1828V20.7164C74.7491 20.2273 74.5525 19.7592 74.2054 19.4145C73.8584 19.0697 73.389 18.8763 72.8998 18.8763V18.8732ZM2.73949 18.9936C2.46537 18.9839 2.19219 19.031 1.93714 19.1319C1.68209 19.2329 1.45069 19.3855 1.25749 19.5802C0.917869 19.9229 0.652344 20.3367 0.652344 20.8307V46.6267C0.652344 47.9914 2.24241 48.9022 3.45579 48.294L22.8144 39.013L23.7623 38.5591L32.9291 34.1254C34.3678 33.4462 34.2567 31.322 32.7407 30.7539L3.37861 19.1264C3.17592 19.0416 2.95914 18.9955 2.73949 18.9905V18.9936Z" fill="#777777"/>
</svg>
